<svg id="Capa_1" enable-background="new 0 0 512.178 512.178" height="512" viewBox="0 0 512.178 512.178" width="512" xmlns="http://www.w3.org/2000/svg"><g><g><path d="m169.391 7.5c-37.674 0-68.214 30.541-68.214 68.214 0 37.674 30.541 68.214 68.214 68.214 10.958 0 21.303-2.599 30.478-7.19v74.093h37.737v-135.116c-.001-37.674-30.541-68.215-68.215-68.215z" fill="#f3f0f3"/></g><g><path d="m154.07 103.419h-.477c-7.276 0-13.174-5.898-13.174-13.174v-33.234c0-7.276 5.898-13.174 13.174-13.174h.477c7.276 0 13.174 5.898 13.174 13.174v33.234c0 7.276-5.898 13.174-13.174 13.174z" fill="#7a6d79"/></g><g><path d="m167.249 57.009v33.24c0 7.27-5.9 13.17-13.18 13.17h-.48c-2.27 0-4.4-.57-6.26-1.58 4.12-2.23 6.92-6.58 6.92-11.59v-33.24c0-5.01-2.8-9.36-6.92-11.59 1.86-1.01 3.99-1.58 6.26-1.58h.48c7.28 0 13.18 5.9 13.18 13.17z" fill="#685e68"/></g><g><path d="m347.135 504.677h-182.092c-34.087 0-61.72-27.633-61.72-61.72v-226.22c0-3.261 2.644-5.905 5.905-5.905h293.722c3.261 0 5.905 2.644 5.905 5.905v226.22c0 34.087-27.633 61.72-61.72 61.72z" fill="#cbc4cc"/></g><g><path d="m408.853 216.834v225.132c0 34.635-28.072 62.707-62.707 62.707h-20.706c34.635 0 62.707-28.072 62.707-62.707v-225.132c0-3.312-2.682-6.005-5.994-6.005h20.706c3.311.001 5.994 2.693 5.994 6.005z" fill="#b5adb6"/></g><g><path d="m342.787 7.5c37.674 0 68.214 30.541 68.214 68.214 0 37.674-30.541 68.214-68.214 68.214-10.958 0-21.303-2.599-30.478-7.19v74.093h-37.737v-135.116c.001-37.674 30.541-68.215 68.215-68.215z" fill="#f3f0f3"/></g><g><path d="m410.999 75.719c0 37.67-30.54 68.21-68.21 68.21-7.89 0-15.46-1.35-22.51-3.82 38.79-1.31 69.83-33.17 69.83-72.28 0-23.61-11.31-44.58-28.81-57.79 28.67 8.07 49.7 34.41 49.7 65.68z" fill="#e2dee2"/></g><g><path d="m358.108 103.419h.477c7.276 0 13.174-5.898 13.174-13.174v-33.234c0-7.276-5.898-13.174-13.174-13.174h-.477c-7.276 0-13.174 5.898-13.174 13.174v33.234c0 7.276 5.898 13.174 13.174 13.174z" fill="#7a6d79"/></g><g><path d="m371.759 57.009v33.24c0 7.27-5.9 13.17-13.17 13.17h-.48c-2.27 0-4.4-.57-6.26-1.58 4.11-2.23 6.91-6.58 6.91-11.59v-33.24c0-5.01-2.8-9.36-6.91-11.59 1.86-1.01 3.99-1.58 6.26-1.58h.48c7.27 0 13.17 5.9 13.17 13.17z" fill="#685e68"/></g><g><path d="m154.07 36.337h-.478c-11.4 0-20.674 9.274-20.674 20.674v33.234c0 11.399 9.274 20.674 20.674 20.674h.478c11.4 0 20.674-9.274 20.674-20.674v-33.234c0-11.4-9.274-20.674-20.674-20.674zm5.674 53.908c0 3.129-2.545 5.674-5.674 5.674h-.478c-3.129 0-5.674-2.545-5.674-5.674v-33.234c0-3.129 2.545-5.674 5.674-5.674h.478c3.129 0 5.674 2.545 5.674 5.674z"/><path d="m316.286 251.362c0-4.143-3.358-7.5-7.5-7.5h-114.37c-4.142 0-7.5 3.357-7.5 7.5s3.358 7.5 7.5 7.5h114.37c4.142 0 7.5-3.357 7.5-7.5z"/><path d="m65.583 81.225c0-1.475.334-2.88.993-4.177 1.875-3.693.402-8.207-3.291-10.083-3.692-1.875-8.207-.402-10.083 3.29-1.713 3.373-2.619 7.167-2.619 10.97 0 4.036 1.014 8.035 2.932 11.564 1.359 2.502 3.936 3.92 6.597 3.92 1.209 0 2.437-.293 3.574-.911 3.64-1.978 4.986-6.531 3.009-10.171-.737-1.357-1.112-2.838-1.112-4.402z"/><path d="m43.147 50.139c-3.542-2.149-8.155-1.014-10.3 2.53-5.188 8.568-7.931 18.415-7.931 28.478s2.742 19.91 7.93 28.477c1.41 2.329 3.886 3.616 6.423 3.616 1.323 0 2.663-.351 3.877-1.086 3.543-2.146 4.676-6.757 2.531-10.3-3.769-6.224-5.761-13.384-5.761-20.707 0-7.322 1.992-14.483 5.762-20.708 2.145-3.543 1.012-8.155-2.531-10.3z"/><path d="m342.787 151.43c41.749 0 75.714-33.966 75.714-75.715s-33.965-75.715-75.714-75.715-75.714 33.966-75.714 75.715v127.617h-21.968v-127.617c0-41.749-33.965-75.715-75.714-75.715s-75.714 33.966-75.714 75.715 33.965 75.715 75.714 75.715c7.904 0 15.595-1.192 22.978-3.554v6.212c0 4.143 3.358 7.5 7.5 7.5s7.5-3.357 7.5-7.5v-22.675c0-6.787-1.891-13.424-5.469-19.192l-2.326-3.75c-2.183-3.52-6.807-4.604-10.327-2.42s-4.603 6.807-2.42 10.326l2.326 3.75c2.104 3.393 3.216 7.295 3.216 11.286v.483c-7.287 2.997-14.992 4.533-22.978 4.533-33.478 0-60.714-27.236-60.714-60.715s27.236-60.714 60.714-60.714 60.714 27.236 60.714 60.715v127.617h-22.736v-13.91c0-4.143-3.358-7.5-7.5-7.5s-7.5 3.357-7.5 7.5v13.91h-83.141c-7.392 0-13.405 6.014-13.405 13.405v226.22c0 38.168 31.052 69.221 69.22 69.221h102.545c4.142 0 7.5-3.357 7.5-7.5s-3.358-7.5-7.5-7.5h-102.545c-29.897 0-54.22-24.323-54.22-54.221v-224.625h290.532v224.625c0 29.897-24.323 54.221-54.22 54.221h-44.296c-4.142 0-7.5 3.357-7.5 7.5s3.358 7.5 7.5 7.5h44.296c38.168 0 69.22-31.053 69.22-69.221v-226.22c0-7.392-6.013-13.405-13.405-13.405h-83.141v-55.456c7.383 2.361 15.073 3.554 22.978 3.554zm-60.714 51.902v-127.617c0-33.479 27.236-60.715 60.714-60.715s60.714 27.236 60.714 60.715-27.236 60.715-60.714 60.715c-7.985 0-15.691-1.536-22.978-4.533v-.483c0-3.991 1.112-7.894 3.216-11.286l2.326-3.75c2.183-3.52 1.1-8.143-2.42-10.326-3.521-2.185-8.144-1.101-10.327 2.42l-2.326 3.75c-3.578 5.769-5.469 12.405-5.469 19.192v71.919h-22.736z"/><path d="m358.108 110.919h.478c11.4 0 20.674-9.274 20.674-20.674v-33.234c0-11.399-9.274-20.674-20.674-20.674h-.478c-11.4 0-20.674 9.274-20.674 20.674v33.234c0 11.4 9.274 20.674 20.674 20.674zm-5.674-53.908c0-3.129 2.545-5.674 5.674-5.674h.478c3.129 0 5.674 2.545 5.674 5.674v33.234c0 3.129-2.545 5.674-5.674 5.674h-.478c-3.129 0-5.674-2.545-5.674-5.674z"/><path d="m448.892 66.965c-3.693 1.876-5.166 6.39-3.291 10.083.659 1.297.993 2.702.993 4.177 0 1.564-.374 3.045-1.111 4.402-1.978 3.64-.631 8.193 3.009 10.171 1.138.618 2.365.911 3.574.911 2.66 0 5.237-1.418 6.597-3.92 1.918-3.529 2.932-7.528 2.932-11.564 0-3.803-.906-7.597-2.619-10.97-1.877-3.693-6.391-5.165-10.084-3.29z"/><path d="m479.331 52.669c-2.146-3.544-6.758-4.678-10.3-2.53-3.543 2.146-4.676 6.757-2.531 10.3 3.77 6.225 5.762 13.386 5.762 20.708 0 7.323-1.992 14.483-5.761 20.707-2.146 3.543-1.013 8.154 2.531 10.3 1.214.736 2.554 1.086 3.877 1.086 2.537 0 5.013-1.288 6.423-3.616 5.188-8.566 7.93-18.414 7.93-28.477s-2.742-19.91-7.931-28.478z"/></g></g></svg>